<?xml version="1.0" encoding="UTF-8" standalone="no"?>
<!-- Created with Inkscape (http://www.inkscape.org/) -->

<svg
   xmlns:dc="http://purl.org/dc/elements/1.1/"
   xmlns:cc="http://creativecommons.org/ns#"
   xmlns:rdf="http://www.w3.org/1999/02/22-rdf-syntax-ns#"
   xmlns:svg="http://www.w3.org/2000/svg"
   xmlns="http://www.w3.org/2000/svg"
   xmlns:sodipodi="http://sodipodi.sourceforge.net/DTD/sodipodi-0.dtd"
   xmlns:inkscape="http://www.inkscape.org/namespaces/inkscape"
   width="199.2"
   height="202.40614"
   id="svg6272"
   version="1.1"
   inkscape:version="0.48.2 r9819"
   sodipodi:docname="New document 24">
  <defs
     id="defs6274" />
  <sodipodi:namedview
     id="base"
     pagecolor="#ffffff"
     bordercolor="#666666"
     borderopacity="1.0"
     inkscape:pageopacity="0.0"
     inkscape:pageshadow="2"
     inkscape:zoom="0.49497475"
     inkscape:cx="54.482986"
     inkscape:cy="-51.060376"
     inkscape:document-units="px"
     inkscape:current-layer="layer1"
     showgrid="false"
     fit-margin-left="0.1"
     fit-margin-bottom="0.1"
     fit-margin-top="0.1"
     fit-margin-right="0.1"
     inkscape:window-width="1920"
     inkscape:window-height="1028"
     inkscape:window-x="-8"
     inkscape:window-y="-8"
     inkscape:window-maximized="1">
    <inkscape:grid
       type="xygrid"
       id="grid6291"
       empspacing="5"
       visible="true"
       enabled="true"
       snapvisiblegridlinesonly="true" />
  </sodipodi:namedview>
  <metadata
     id="metadata6277">
    <rdf:RDF>
      <cc:Work
         rdf:about="">
        <dc:format>image/svg+xml</dc:format>
        <dc:type
           rdf:resource="http://purl.org/dc/dcmitype/StillImage" />
        <dc:title></dc:title>
      </cc:Work>
    </rdf:RDF>
  </metadata>
  <g
     inkscape:label="Layer 1"
     inkscape:groupmode="layer"
     id="layer1"
     transform="translate(-279.54286,-466.32433)">
    <g
       id="g6333"
       transform="matrix(0.44265405,0,0,0.44265405,155.85782,372.65849)">
      <path
         sodipodi:nodetypes="cccccccccc"
         inkscape:connector-curvature="0"
         id="path6320"
         d="m 279.64286,492.80861 c 0,-88.99424 29.61065,-217.28378 85.89286,-261.875 16.48322,-13.04709 34.55047,-19.10714 56.42857,-19.10714 71.29651,0 159.17323,53.67777 203.39285,88.39285 49.63813,39.4556 103.84673,98.27511 103.84673,148.45045 0,21.98545 -9.36867,43.98719 -32.32488,68.69037 -38.44329,42.17097 -119.82425,100.77258 -206.70247,130.30968 -23.55009,7.83784 -55.34141,20.96066 -106.06601,20.96066 -39.84639,0 -55.61062,-11.85915 -72.09964,-32.32488 -18.52919,-24.9374 -32.36801,-79.03477 -32.36801,-143.49699 z"
         style="fill:#ffc700;fill-opacity:1;stroke:none" />
      <path
         inkscape:connector-curvature="0"
         id="path6306"
         d="m 601.19153,400.3125 c -2.84073,9e-5 -5.26216,1.04115 -7.26124,3.125 -1.99913,2.08405 -3.00465,4.53602 -3.00465,7.375 l 0,11.1875 c -1.42045,9e-5 -2.85409,0.0919 -4.31919,0.3125 -1.4651,0.22059 -2.80669,0.66019 -4.00621,1.28125 -1.19947,0.62122 -2.17374,1.48555 -2.97335,2.59375 -0.79966,1.10838 -1.22064,2.53714 -1.22064,4.3125 0,1.77283 0.42128,3.23551 1.22064,4.34375 0.79961,1.10837 1.82443,1.97269 3.06725,2.59375 1.24281,0.62118 2.57106,1.0459 4.0375,1.3125 1.46649,0.26689 2.93012,0.40625 4.35049,0.40625 l 0,54.28125 20.3753,0 0,-54.15625 11.14225,0 19.46765,47.5625 c 0.98344,2.31745 2.27374,4.11425 3.881,5.40625 1.60727,1.29195 3.73829,1.9375 6.41619,1.9375 2.40819,0 4.43332,-0.74863 6.0406,-2.21875 1.60722,-1.47015 2.83094,-3.23041 3.72452,-5.28125 0.35669,-0.26605 1.07127,-1.43684 2.097,-3.53125 1.02564,-2.09437 2.19773,-4.67507 3.53672,-7.75 1.33891,-3.07494 2.76912,-6.45706 4.28789,-10.15625 1.51869,-3.69911 2.9679,-7.25626 4.35049,-10.6875 1.38246,-3.43125 2.60355,-6.56793 3.63062,-9.375 1.02695,-2.80694 1.7441,-4.91574 2.19089,-6.34375 1.51734,-3.56309 2.28471,-6.28478 2.28479,-8.15625 -8e-5,-2.76337 -0.99566,-5.1502 -3.00465,-7.15625 -2.0092,-2.00588 -4.4689,-2.99991 -7.32384,-3 -2.23115,9e-5 -4.2413,0.62657 -6.0719,1.875 -1.83065,1.24847 -3.10473,2.92465 -3.81842,5.0625 L 652.11413,464.5 638.74969,428.78125 c -1.63585,-4.48961 -4.71681,-6.9375 -9.07656,-6.9375 l -10.26589,0 -1.31454,0 -6.63527,0 0,-10.90625 c -4e-5,-2.83894 -1.00553,-5.30883 -3.00465,-7.4375 -1.99909,-2.1286 -4.41774,-3.18741 -7.26125,-3.1875 z"
         style="font-size:40px;font-style:normal;font-variant:normal;font-weight:bold;font-stretch:normal;line-height:125%;letter-spacing:0px;word-spacing:0px;fill:#ffffff;stroke:none;font-family:Folks-Bold;-inkscape-font-specification:Folks-Bold Bold" />
      <path
         style="font-size:40px;font-style:normal;font-variant:normal;font-weight:bold;font-stretch:normal;line-height:125%;letter-spacing:0px;word-spacing:0px;fill:#ffffff;stroke:none;font-family:Folks-Bold;-inkscape-font-specification:Folks-Bold Bold"
         d="m 497.5893,563.5229 c -54.13286,0 -74.55357,-38.11937 -74.55357,-55.08929 0,-13.69632 11.02452,-23.39286 22.41071,-23.39286 11.08042,0 17.61905,10.61655 22.67857,16.16072 7.16436,8.11175 14.91933,18.125 30.89286,18.125 15.74956,0 30.08928,-10.16749 30.08928,-27.23215 0,-19.92929 -21.13594,-23.16693 -32.45267,-27.17123 -9.6203,-3.91502 -23.70804,-10.35886 -23.70804,-24.61448 0,-7.81932 3.56313,-12.57536 23.72344,-20.4064 14.17551,-5.23084 22.43727,-12.76116 22.43727,-22.45074 0,-9.8472 -8.45853,-20 -19.375,-20 -15.31253,0 -32.40921,13.10016 -44.46428,23.30357 l -24.375,-32.58929 c 19.65621,-18.78282 39.221,-34.82143 69.73214,-34.82143 41.93428,0 66.60714,30.04568 66.60714,60.98215 0,16.66664 -10.91077,34.87262 -23.30357,43.57143 24.71313,10.11852 35.26786,31.37296 35.26786,52.32142 0,40.76458 -34.37883,73.30358 -81.60714,73.30358 z"
         id="path6310"
         inkscape:connector-curvature="0"
         sodipodi:nodetypes="cccccccccccccccccc" />
      <path
         sodipodi:nodetypes="ccccccccc"
         inkscape:connector-curvature="0"
         id="path6312"
         d="m 414,559.86218 -49,0 0,-170.5 -9.35714,7.71429 -24.08929,-32.53572 32.64286,-24.32143 c 0,0 6.7753,-6.07143 18.30357,-6.07143 19.90332,0 31.5,16.54338 31.5,30.21429 z"
         style="fill:#ffffff;stroke:none" />
    </g>
  </g>
</svg>
