<?xml version="1.0" encoding="UTF-8" ?>
<!DOCTYPE svg PUBLIC "-//W3C//DTD SVG 1.1//EN" "http://www.w3.org/Graphics/SVG/1.1/DTD/svg11.dtd">
<svg width="322pt" height="276pt" viewBox="0 0 322 276" version="1.1" xmlns="http://www.w3.org/2000/svg">
<g id="#ffffffff">
</g>
<g id="#3051b0ff">
<path fill="#3051b0" opacity="1.00" d=" M 89.59 5.66 C 91.63 3.69 93.48 0.99 96.60 0.84 C 96.86 26.58 96.54 52.33 96.76 78.07 C 96.54 80.00 98.12 81.45 100.01 81.23 C 112.01 81.44 124.02 81.23 136.03 81.32 C 144.04 81.38 152.54 80.06 159.03 75.02 C 166.70 69.20 169.00 58.10 165.75 49.29 C 164.03 44.54 160.19 40.97 155.88 38.53 C 165.00 33.26 166.74 20.87 162.76 11.80 C 165.95 8.65 169.00 5.35 172.28 2.28 C 173.20 1.27 174.61 1.15 175.84 0.77 C 176.07 23.18 175.88 45.60 175.94 68.01 C 176.04 71.92 175.58 75.89 176.28 79.76 C 177.11 81.54 179.36 81.15 180.95 81.32 C 198.32 81.29 215.70 81.34 233.06 81.28 C 234.41 81.31 235.78 81.39 237.10 81.72 C 237.94 83.89 236.05 85.32 234.75 86.72 C 230.88 90.50 227.08 94.35 223.23 98.15 C 219.22 98.19 215.19 97.87 211.20 98.30 C 208.78 98.54 207.81 101.10 207.03 103.05 C 198.59 125.84 190.14 148.62 181.66 171.38 C 180.73 174.10 179.26 176.74 179.21 179.67 C 180.44 181.01 182.40 180.56 184.02 180.72 C 187.99 180.65 191.96 180.86 195.92 180.57 C 197.11 180.57 198.24 179.90 198.71 178.78 C 200.54 175.00 201.59 170.91 203.10 167.00 C 213.39 167.00 223.69 167.00 233.99 167.00 C 235.77 171.28 236.55 176.08 239.20 179.93 C 241.88 181.27 245.08 180.50 247.98 180.71 C 251.44 180.51 255.26 181.45 258.35 179.44 C 251.45 160.47 244.37 141.58 237.40 122.64 C 244.10 115.93 250.80 109.22 257.51 102.51 C 258.69 101.19 260.26 100.36 262.05 100.28 C 262.08 123.20 262.06 146.11 262.06 169.02 C 262.11 172.28 261.79 175.57 262.32 178.81 C 262.82 180.90 265.37 180.56 267.00 180.70 C 275.66 180.69 284.32 180.67 292.99 180.69 C 298.91 180.72 304.90 179.71 310.32 177.27 C 312.57 176.27 314.65 174.85 317.03 174.14 C 319.38 173.76 321.12 175.63 322.00 177.58 L 322.00 180.01 C 320.26 182.57 318.02 184.71 315.83 186.85 C 287.61 214.98 259.46 243.17 231.25 271.30 C 228.79 273.90 225.46 275.46 221.94 276.00 L 17.97 276.00 C 8.83 274.58 1.02 266.49 1.03 257.06 C 0.96 205.01 1.01 152.96 1.01 100.91 C 0.90 96.69 2.43 92.46 5.53 89.55 C 33.57 61.60 61.57 33.63 89.59 5.66 M 96.70 101.96 C 96.67 126.64 96.71 151.33 96.68 176.01 C 96.63 177.75 96.77 180.36 99.02 180.55 C 103.98 180.81 108.97 180.78 113.93 180.57 C 115.73 180.50 116.47 178.58 116.34 177.02 C 116.45 162.82 116.31 148.61 116.40 134.41 C 120.46 141.41 124.51 148.41 128.53 155.42 C 129.45 156.74 130.19 158.58 131.93 158.96 C 135.98 159.35 141.56 160.12 143.24 155.30 C 147.20 148.32 151.19 141.36 155.18 134.40 C 155.23 148.64 155.12 162.88 155.23 177.11 C 155.07 178.83 156.16 180.77 158.10 180.61 C 162.91 180.69 167.77 180.92 172.57 180.48 C 174.61 180.01 174.46 177.62 174.51 176.00 C 174.48 151.33 174.51 126.67 174.50 102.01 C 174.64 100.36 174.04 98.13 172.02 98.12 C 168.68 97.83 165.31 98.05 161.96 97.98 C 159.30 98.04 155.73 97.51 154.27 100.36 C 148.07 111.28 141.98 122.27 135.79 133.19 C 129.92 122.70 124.06 112.20 118.22 101.69 C 117.33 100.07 116.12 98.24 114.07 98.14 C 109.06 97.90 104.01 97.87 99.00 98.14 C 97.08 98.27 96.59 100.38 96.70 101.96 Z" />
<path fill="#3051b0" opacity="1.00" d=" M 116.37 16.25 C 123.27 16.29 130.16 16.16 137.06 16.31 C 140.02 16.47 143.71 16.84 145.25 19.78 C 146.75 23.05 146.11 27.83 142.59 29.53 C 139.14 31.47 134.93 30.22 131.36 31.52 C 129.40 33.81 130.56 37.24 130.22 40.01 C 130.54 42.37 129.39 45.71 131.75 47.26 C 135.72 48.25 140.17 46.99 143.92 49.06 C 147.76 51.09 148.02 56.55 146.11 60.01 C 144.24 63.03 140.35 63.52 137.11 63.55 C 130.20 63.60 123.29 63.55 116.38 63.56 C 116.37 47.79 116.37 32.02 116.37 16.25 Z" />
<path fill="#3051b0" opacity="1.00" d=" M 195.75 16.38 C 208.15 16.37 220.54 16.36 232.94 16.38 C 234.70 15.86 236.07 18.44 234.65 19.62 C 231.34 23.29 227.69 26.64 224.21 30.15 C 214.73 30.09 205.24 30.15 195.75 30.12 C 195.74 25.54 195.74 20.96 195.75 16.38 Z" />
<path fill="#3051b0" opacity="1.00" d=" M 195.75 47.19 C 206.85 47.20 217.94 47.15 229.04 47.20 C 230.93 46.73 231.64 49.39 230.40 50.43 C 226.02 54.72 221.49 58.85 217.00 63.03 C 215.99 64.17 214.36 63.71 213.04 63.85 C 207.28 63.80 201.51 63.82 195.75 63.81 C 195.74 58.27 195.74 52.73 195.75 47.19 Z" />
<path fill="#3051b0" opacity="1.00" d=" M 281.75 115.50 C 288.36 115.92 295.46 114.29 301.67 117.22 C 305.71 119.13 308.10 123.59 307.98 128.00 C 307.97 136.03 308.12 144.07 307.90 152.10 C 307.75 157.50 303.29 162.01 298.08 162.87 C 292.68 163.74 287.19 163.15 281.75 163.31 C 281.74 147.37 281.75 131.44 281.75 115.50 Z" />
<path fill="#3051b0" opacity="1.00" d=" M 209.11 149.50 C 212.25 140.18 215.45 130.88 218.59 121.56 C 221.77 130.87 224.94 140.18 228.09 149.50 C 221.77 149.51 215.44 149.50 209.11 149.50 Z" />
</g>
</svg>
